<svg width="45" height="45" viewBox="0 0 45 45" fill="none" xmlns="http://www.w3.org/2000/svg">
<rect width="45" height="45" fill="white"/>
<path d="M44.2742 21.7742H23.2258V0.725806C23.2258 0.32498 22.9008 0 22.5 0C22.0992 0 21.7742 0.32498 21.7742 0.725806V21.7742H0.725806C0.32498 21.7742 0 22.0992 0 22.5C0 22.9008 0.32498 23.2258 0.725806 23.2258H21.7742V44.2742C21.7742 44.675 22.0992 45 22.5 45C22.9008 45 23.2258 44.675 23.2258 44.2742V23.2258H44.2742C44.675 23.2258 45 22.9008 45 22.5C45 22.0992 44.675 21.7742 44.2742 21.7742Z" fill="black"/>
</svg>
